<svg width="22" height="26" viewBox="0 0 22 26" fill="none" xmlns="http://www.w3.org/2000/svg">
<path d="M21.9973 24.116V24.1008L20.5989 7.22617C20.5374 6.2207 19.6974 5.43359 18.6781 5.43359H16.8033C16.6292 2.40703 14.0937 0 10.9947 0C7.9009 0 5.36027 2.40703 5.19124 5.43359H3.3165C2.29717 5.43359 1.45713 6.2207 1.39566 7.22617L0.00241242 24.0906V24.116C-0.0231987 24.6035 0.156079 25.0859 0.494147 25.4414C0.832214 25.7969 1.3137 26 1.80544 26H20.1943C20.686 26 21.1624 25.7969 21.5056 25.4414C21.8385 25.0859 22.0229 24.6035 21.9973 24.116ZM10.9947 1.82812C13.0744 1.82812 14.7801 3.41758 14.9491 5.43359H7.04036C7.2094 3.41758 8.92022 1.82812 10.9947 1.82812ZM1.84642 24.1719L3.23966 7.36328V7.33789C3.23966 7.29727 3.27552 7.26172 3.32162 7.26172H18.6832C18.7242 7.26172 18.76 7.29219 18.7652 7.33789V7.35313L20.1482 24.1719H1.84642Z" fill="black"/>
</svg>
