<svg width="27" height="26" viewBox="0 0 27 26" fill="none" xmlns="http://www.w3.org/2000/svg">
<path d="M22.1901 16.9003C20.7022 15.4275 18.9168 14.3544 16.972 13.739C19.0975 12.424 20.5109 10.0886 20.5109 7.43233C20.5109 3.33482 17.142 0 13.0026 0C8.86327 0 5.49438 3.33482 5.49438 7.43233C5.49438 10.0886 6.90782 12.424 9.03331 13.739C7.08318 14.3544 5.29777 15.4275 3.81524 16.9003C1.34968 19.3304 0 22.5652 0 26H1.91294C1.91294 19.9458 6.88657 15.0225 13.0026 15.0225C19.1187 15.0225 24.0924 19.9458 24.0924 26H26.0053C26 22.5652 24.6503 19.3304 22.1901 16.9003ZM7.402 7.43233C7.402 4.38155 9.91538 1.89359 13.0026 1.89359C16.0846 1.89359 18.598 4.38155 18.598 7.43233C18.598 10.4831 16.0846 12.9711 13.0026 12.9711C9.91538 12.9763 7.402 10.4884 7.402 7.43233Z" fill="black"/>
</svg>
