<svg width="40" height="46" viewBox="0 0 40 46" fill="none" xmlns="http://www.w3.org/2000/svg">
<path fill-rule="evenodd" clip-rule="evenodd" d="M14.7812 19.4722H25.2169V26.6685C25.2169 29.547 22.8759 31.8893 19.9991 31.8893C17.1222 31.8893 14.7812 29.547 14.7812 26.6685V19.4722Z" fill="#FF7D4E"/>
<path fill-rule="evenodd" clip-rule="evenodd" d="M32.2686 19.4722V26.6685C32.2686 33.4415 26.7687 38.9446 19.9997 38.9446C13.2306 38.9446 7.73078 33.4415 7.73078 26.6685V19.4722H0.679688V26.6685C0.679688 37.336 9.33843 45.9998 19.9997 45.9998C30.6609 45.9998 39.3197 37.336 39.3197 26.6685V19.4722H32.2686Z" fill="#725CF0"/>
<path fill-rule="evenodd" clip-rule="evenodd" d="M20.0033 0C13.2342 0 7.73438 5.50307 7.73438 12.2761V19.4724H14.7855V12.2761C14.7855 9.39755 17.1264 7.05521 20.0033 7.05521C22.8801 7.05521 25.2211 9.39755 25.2211 12.2761V19.4724H32.2722V12.2761C32.2722 5.50307 26.7723 0 20.0033 0Z" fill="#FDC672"/>
</svg>
